<mxfile host="app.diagrams.net" modified="2024-06-27T09:19:29.280Z" agent="Mozilla/5.0 (Macintosh; Intel Mac OS X 10_15_7) AppleWebKit/537.36 (KHTML, like Gecko) Chrome/126.0.0.0 Safari/537.36" version="24.6.3" etag="pLL-QeMg5vlg9lVcYxJI" type="github">
  <diagram name="Страница — 1" id="PyotggbcCgVPf3wwolZ1">
    <mxGraphModel>
      <root>
        <mxCell id="0" />
        <mxCell id="1" parent="0" />
      </root>
    </mxGraphModel>
  </diagram>
</mxfile>
